<svg width="943" height="943" viewBox="0 0 943 943" xmlns="http://www.w3.org/2000/svg">
<rect x="0" y="0" width="943" height="943" opacity="1" fill="#FFFFFF" stroke="none"/>
<polyline fill="none" opacity="1" stroke="#FF0000" stroke-width="3" points="132,466 219,400 "/>
<polyline fill="none" opacity="1" stroke="#FF0000" stroke-width="3" points="320,412 219,400 "/>
<polyline fill="none" opacity="1" stroke="#FF0000" stroke-width="3" points="317,436 219,400 "/>
<polyline fill="none" opacity="1" stroke="#FF0000" stroke-width="3" points="317,436 320,412 "/>
<polyline fill="none" opacity="1" stroke="#FF0000" stroke-width="3" points="118,331 219,400 "/>
<polyline fill="none" opacity="1" stroke="#FF0000" stroke-width="3" points="153,311 219,400 "/>
<polyline fill="none" opacity="1" stroke="#FF0000" stroke-width="3" points="130,364 219,400 "/>
<polyline fill="none" opacity="1" stroke="#FF0000" stroke-width="3" points="96,384 219,400 "/>
<polyline fill="none" opacity="1" stroke="#FF0000" stroke-width="3" points="103,439 219,400 "/>
<polyline fill="none" opacity="1" stroke="#FF0000" stroke-width="3" points="125,411 219,400 "/>
<polyline fill="none" opacity="1" stroke="#FF0000" stroke-width="3" points="479,427 534,277 "/>
<polyline fill="none" opacity="1" stroke="#FF0000" stroke-width="3" points="479,427 317,436 "/>
<polyline fill="none" opacity="1" stroke="#FF0000" stroke-width="3" points="479,427 320,412 "/>
<polyline fill="none" opacity="1" stroke="#FF0000" stroke-width="3" points="479,427 219,400 "/>
<polyline fill="none" opacity="1" stroke="#FF0000" stroke-width="3" points="428,329 479,427 "/>
<polyline fill="none" opacity="1" stroke="#FF0000" stroke-width="3" points="479,303 479,427 "/>
<polyline fill="none" opacity="1" stroke="#FF0000" stroke-width="3" points="611,361 479,427 "/>
<polyline fill="none" opacity="1" stroke="#FF0000" stroke-width="3" points="496,273 479,427 "/>
<polyline fill="none" opacity="1" stroke="#FF0000" stroke-width="3" points="332,319 386,410 "/>
<polyline fill="none" opacity="1" stroke="#FF0000" stroke-width="3" points="319,358 386,410 "/>
<polyline fill="none" opacity="1" stroke="#FF0000" stroke-width="3" points="319,358 332,319 "/>
<polyline fill="none" opacity="1" stroke="#FF0000" stroke-width="3" points="356,336 386,410 "/>
<polyline fill="none" opacity="1" stroke="#FF0000" stroke-width="3" points="356,336 332,319 "/>
<polyline fill="none" opacity="1" stroke="#FF0000" stroke-width="3" points="356,336 319,358 "/>
<polyline fill="none" opacity="1" stroke="#FF0000" stroke-width="3" points="353,315 386,410 "/>
<polyline fill="none" opacity="1" stroke="#FF0000" stroke-width="3" points="353,315 332,319 "/>
<polyline fill="none" opacity="1" stroke="#FF0000" stroke-width="3" points="353,315 319,358 "/>
<polyline fill="none" opacity="1" stroke="#FF0000" stroke-width="3" points="353,315 356,336 "/>
<polyline fill="none" opacity="1" stroke="#FF0000" stroke-width="3" points="341,355 386,410 "/>
<polyline fill="none" opacity="1" stroke="#FF0000" stroke-width="3" points="341,355 332,319 "/>
<polyline fill="none" opacity="1" stroke="#FF0000" stroke-width="3" points="341,355 319,358 "/>
<polyline fill="none" opacity="1" stroke="#FF0000" stroke-width="3" points="341,355 356,336 "/>
<polyline fill="none" opacity="1" stroke="#FF0000" stroke-width="3" points="341,355 353,315 "/>
<polyline fill="none" opacity="1" stroke="#FF0000" stroke-width="3" points="319,336 386,410 "/>
<polyline fill="none" opacity="1" stroke="#FF0000" stroke-width="3" points="319,336 332,319 "/>
<polyline fill="none" opacity="1" stroke="#FF0000" stroke-width="3" points="319,336 319,358 "/>
<polyline fill="none" opacity="1" stroke="#FF0000" stroke-width="3" points="319,336 356,336 "/>
<polyline fill="none" opacity="1" stroke="#FF0000" stroke-width="3" points="319,336 353,315 "/>
<polyline fill="none" opacity="1" stroke="#FF0000" stroke-width="3" points="319,336 341,355 "/>
<polyline fill="none" opacity="1" stroke="#FF0000" stroke-width="3" points="414,385 386,410 "/>
<polyline fill="none" opacity="1" stroke="#FF0000" stroke-width="3" points="414,385 332,319 "/>
<polyline fill="none" opacity="1" stroke="#FF0000" stroke-width="3" points="414,385 319,358 "/>
<polyline fill="none" opacity="1" stroke="#FF0000" stroke-width="3" points="414,385 356,336 "/>
<polyline fill="none" opacity="1" stroke="#FF0000" stroke-width="3" points="414,385 353,315 "/>
<polyline fill="none" opacity="1" stroke="#FF0000" stroke-width="3" points="414,385 341,355 "/>
<polyline fill="none" opacity="1" stroke="#FF0000" stroke-width="3" points="414,385 319,336 "/>
<polyline fill="none" opacity="1" stroke="#FF0000" stroke-width="3" points="414,385 428,329 "/>
<polyline fill="none" opacity="1" stroke="#FF0000" stroke-width="3" points="414,385 479,427 "/>
<polyline fill="none" opacity="1" stroke="#FF0000" stroke-width="3" points="476,502 414,385 "/>
<polyline fill="none" opacity="1" stroke="#FF0000" stroke-width="3" points="476,502 479,427 "/>
<polyline fill="none" opacity="1" stroke="#FF0000" stroke-width="3" points="512,524 476,502 "/>
<polyline fill="none" opacity="1" stroke="#FF0000" stroke-width="3" points="512,524 414,385 "/>
<polyline fill="none" opacity="1" stroke="#FF0000" stroke-width="3" points="512,524 479,427 "/>
<polyline fill="none" opacity="1" stroke="#FF0000" stroke-width="3" points="446,514 476,502 "/>
<polyline fill="none" opacity="1" stroke="#FF0000" stroke-width="3" points="446,514 479,427 "/>
<polyline fill="none" opacity="1" stroke="#FF0000" stroke-width="3" points="446,514 386,410 "/>
<polyline fill="none" opacity="1" stroke="#FF0000" stroke-width="3" points="446,514 512,524 "/>
<polyline fill="none" opacity="1" stroke="#FF0000" stroke-width="3" points="500,461 479,427 "/>
<polyline fill="none" opacity="1" stroke="#FF0000" stroke-width="3" points="500,461 414,385 "/>
<polyline fill="none" opacity="1" stroke="#FF0000" stroke-width="3" points="500,461 512,524 "/>
<polyline fill="none" opacity="1" stroke="#FF0000" stroke-width="3" points="500,461 476,502 "/>
<polyline fill="none" opacity="1" stroke="#FF0000" stroke-width="3" points="500,461 446,514 "/>
<polyline fill="none" opacity="1" stroke="#FF0000" stroke-width="3" points="378,505 479,427 "/>
<polyline fill="none" opacity="1" stroke="#FF0000" stroke-width="3" points="378,505 500,461 "/>
<polyline fill="none" opacity="1" stroke="#FF0000" stroke-width="3" points="512,363 414,385 "/>
<polyline fill="none" opacity="1" stroke="#FF0000" stroke-width="3" points="512,363 500,461 "/>
<polyline fill="none" opacity="1" stroke="#FF0000" stroke-width="3" points="512,363 479,427 "/>
<polyline fill="none" opacity="1" stroke="#FF0000" stroke-width="3" points="403,274 414,385 "/>
<polyline fill="none" opacity="1" stroke="#FF0000" stroke-width="3" points="451,360 403,274 "/>
<polyline fill="none" opacity="1" stroke="#FF0000" stroke-width="3" points="451,360 479,427 "/>
<polyline fill="none" opacity="1" stroke="#FF0000" stroke-width="3" points="451,360 414,385 "/>
<polyline fill="none" opacity="1" stroke="#FF0000" stroke-width="3" points="451,360 500,461 "/>
<polyline fill="none" opacity="1" stroke="#FF0000" stroke-width="3" points="454,283 479,427 "/>
<polyline fill="none" opacity="1" stroke="#FF0000" stroke-width="3" points="558,402 479,427 "/>
<polyline fill="none" opacity="1" stroke="#FF0000" stroke-width="3" points="558,402 500,461 "/>
<polyline fill="none" opacity="1" stroke="#FF0000" stroke-width="3" points="566,349 479,427 "/>
<polyline fill="none" opacity="1" stroke="#FF0000" stroke-width="3" points="566,349 512,363 "/>
<polyline fill="none" opacity="1" stroke="#FF0000" stroke-width="3" points="543,340 479,427 "/>
<polyline fill="none" opacity="1" stroke="#FF0000" stroke-width="3" points="543,340 566,349 "/>
<polyline fill="none" opacity="1" stroke="#FF0000" stroke-width="3" points="543,340 512,363 "/>
<polyline fill="none" opacity="1" stroke="#FF0000" stroke-width="3" points="550,312 566,349 "/>
<polyline fill="none" opacity="1" stroke="#FF0000" stroke-width="3" points="550,312 543,340 "/>
<polyline fill="none" opacity="1" stroke="#FF0000" stroke-width="3" points="550,312 479,427 "/>
<polyline fill="none" opacity="1" stroke="#FF0000" stroke-width="3" points="550,312 512,363 "/>
<polyline fill="none" opacity="1" stroke="#FF0000" stroke-width="3" points="527,320 566,349 "/>
<polyline fill="none" opacity="1" stroke="#FF0000" stroke-width="3" points="527,320 543,340 "/>
<polyline fill="none" opacity="1" stroke="#FF0000" stroke-width="3" points="527,320 550,312 "/>
<polyline fill="none" opacity="1" stroke="#FF0000" stroke-width="3" points="527,320 479,427 "/>
<polyline fill="none" opacity="1" stroke="#FF0000" stroke-width="3" points="527,320 512,363 "/>
<polyline fill="none" opacity="1" stroke="#FF0000" stroke-width="3" points="570,325 566,349 "/>
<polyline fill="none" opacity="1" stroke="#FF0000" stroke-width="3" points="570,325 543,340 "/>
<polyline fill="none" opacity="1" stroke="#FF0000" stroke-width="3" points="570,325 550,312 "/>
<polyline fill="none" opacity="1" stroke="#FF0000" stroke-width="3" points="570,325 527,320 "/>
<polyline fill="none" opacity="1" stroke="#FF0000" stroke-width="3" points="570,325 479,427 "/>
<polyline fill="none" opacity="1" stroke="#FF0000" stroke-width="3" points="570,325 512,363 "/>
<polyline fill="none" opacity="1" stroke="#FF0000" stroke-width="3" points="486,647 512,524 "/>
<polyline fill="none" opacity="1" stroke="#FF0000" stroke-width="3" points="527,667 512,524 "/>
<polyline fill="none" opacity="1" stroke="#FF0000" stroke-width="3" points="556,543 476,502 "/>
<polyline fill="none" opacity="1" stroke="#FF0000" stroke-width="3" points="556,543 512,524 "/>
<polyline fill="none" opacity="1" stroke="#FF0000" stroke-width="3" points="500,588 556,543 "/>
<polyline fill="none" opacity="1" stroke="#FF0000" stroke-width="3" points="500,588 512,524 "/>
<polyline fill="none" opacity="1" stroke="#FF0000" stroke-width="3" points="500,588 476,502 "/>
<polyline fill="none" opacity="1" stroke="#FF0000" stroke-width="3" points="424,476 479,427 "/>
<polyline fill="none" opacity="1" stroke="#FF0000" stroke-width="3" points="424,476 446,514 "/>
<polyline fill="none" opacity="1" stroke="#FF0000" stroke-width="3" points="424,476 500,461 "/>
<polyline fill="none" opacity="1" stroke="#FF0000" stroke-width="3" points="365,468 378,505 "/>
<polyline fill="none" opacity="1" stroke="#FF0000" stroke-width="3" points="365,468 479,427 "/>
<polyline fill="none" opacity="1" stroke="#FF0000" stroke-width="3" points="272,574 378,505 "/>
<polyline fill="none" opacity="1" stroke="#FF0000" stroke-width="3" points="787,563 889,583 "/>
<polyline fill="none" opacity="1" stroke="#FF0000" stroke-width="3" points="625,528 787,563 "/>
<polyline fill="none" opacity="1" stroke="#FF0000" stroke-width="3" points="625,528 512,524 "/>
<polyline fill="none" opacity="1" stroke="#FF0000" stroke-width="3" points="625,528 500,461 "/>
<polyline fill="none" opacity="1" stroke="#FF0000" stroke-width="3" points="625,528 479,427 "/>
<polyline fill="none" opacity="1" stroke="#FF0000" stroke-width="3" points="444,564 446,514 "/>
<polyline fill="none" opacity="1" stroke="#FF0000" stroke-width="3" points="444,564 479,427 "/>
<polyline fill="none" opacity="1" stroke="#FF0000" stroke-width="3" points="382,585 444,564 "/>
<polyline fill="none" opacity="1" stroke="#FF0000" stroke-width="3" points="382,585 476,502 "/>
<polyline fill="none" opacity="1" stroke="#FF0000" stroke-width="3" points="424,593 444,564 "/>
<polyline fill="none" opacity="1" stroke="#FF0000" stroke-width="3" points="424,593 446,514 "/>
<polyline fill="none" opacity="1" stroke="#FF0000" stroke-width="3" points="424,593 479,427 "/>
<polyline fill="none" opacity="1" stroke="#FF0000" stroke-width="3" points="419,706 424,593 "/>
<polyline fill="none" opacity="1" stroke="#FF0000" stroke-width="3" points="419,706 486,647 "/>
<polyline fill="none" opacity="1" stroke="#FF0000" stroke-width="3" points="345,697 424,593 "/>
<polyline fill="none" opacity="1" stroke="#FF0000" stroke-width="3" points="446,611 424,593 "/>
<polyline fill="none" opacity="1" stroke="#FF0000" stroke-width="3" points="446,611 444,564 "/>
<polyline fill="none" opacity="1" stroke="#FF0000" stroke-width="3" points="446,611 446,514 "/>
<polyline fill="none" opacity="1" stroke="#FF0000" stroke-width="3" points="527,562 424,593 "/>
<polyline fill="none" opacity="1" stroke="#FF0000" stroke-width="3" points="527,562 444,564 "/>
<polyline fill="none" opacity="1" stroke="#FF0000" stroke-width="3" points="527,562 486,647 "/>
<polyline fill="none" opacity="1" stroke="#FF0000" stroke-width="3" points="527,562 446,611 "/>
<polyline fill="none" opacity="1" stroke="#FF0000" stroke-width="3" points="527,562 446,514 "/>
<polyline fill="none" opacity="1" stroke="#FF0000" stroke-width="3" points="527,562 479,427 "/>
<polyline fill="none" opacity="1" stroke="#FF0000" stroke-width="3" points="527,562 386,410 "/>
<polyline fill="none" opacity="1" stroke="#FF0000" stroke-width="3" points="527,562 512,524 "/>
<polyline fill="none" opacity="1" stroke="#FF0000" stroke-width="3" points="527,562 556,543 "/>
<polyline fill="none" opacity="1" stroke="#FF0000" stroke-width="3" points="527,562 625,528 "/>
<polyline fill="none" opacity="1" stroke="#FF0000" stroke-width="3" points="456,657 444,564 "/>
<polyline fill="none" opacity="1" stroke="#FF0000" stroke-width="3" points="456,657 527,562 "/>
<polyline fill="none" opacity="1" stroke="#FF0000" stroke-width="3" points="608,624 527,562 "/>
<polyline fill="none" opacity="1" stroke="#FF0000" stroke-width="3" points="608,624 556,543 "/>
<polyline fill="none" opacity="1" stroke="#FF0000" stroke-width="3" points="608,624 625,528 "/>
<polyline fill="none" opacity="1" stroke="#FF0000" stroke-width="3" points="592,544 527,562 "/>
<polyline fill="none" opacity="1" stroke="#FF0000" stroke-width="3" points="592,544 625,528 "/>
<polyline fill="none" opacity="1" stroke="#FF0000" stroke-width="3" points="592,544 500,461 "/>
<polyline fill="none" opacity="1" stroke="#FF0000" stroke-width="3" points="592,544 608,624 "/>
<polyline fill="none" opacity="1" stroke="#FF0000" stroke-width="3" points="592,544 479,427 "/>
<polyline fill="none" opacity="1" stroke="#FF0000" stroke-width="3" points="629,611 592,544 "/>
<polyline fill="none" opacity="1" stroke="#FF0000" stroke-width="3" points="629,611 527,562 "/>
<polyline fill="none" opacity="1" stroke="#FF0000" stroke-width="3" points="629,611 625,528 "/>
<polyline fill="none" opacity="1" stroke="#FF0000" stroke-width="3" points="629,611 608,624 "/>
<polyline fill="none" opacity="1" stroke="#FF0000" stroke-width="3" points="665,604 625,528 "/>
<polyline fill="none" opacity="1" stroke="#FF0000" stroke-width="3" points="665,604 592,544 "/>
<polyline fill="none" opacity="1" stroke="#FF0000" stroke-width="3" points="665,604 629,611 "/>
<polyline fill="none" opacity="1" stroke="#FF0000" stroke-width="3" points="611,601 625,528 "/>
<polyline fill="none" opacity="1" stroke="#FF0000" stroke-width="3" points="611,601 592,544 "/>
<polyline fill="none" opacity="1" stroke="#FF0000" stroke-width="3" points="611,601 665,604 "/>
<polyline fill="none" opacity="1" stroke="#FF0000" stroke-width="3" points="611,601 629,611 "/>
<polyline fill="none" opacity="1" stroke="#FF0000" stroke-width="3" points="611,601 608,624 "/>
<polyline fill="none" opacity="1" stroke="#FF0000" stroke-width="3" points="611,601 527,562 "/>
<polyline fill="none" opacity="1" stroke="#FF0000" stroke-width="3" points="619,580 527,562 "/>
<polyline fill="none" opacity="1" stroke="#FF0000" stroke-width="3" points="619,580 592,544 "/>
<polyline fill="none" opacity="1" stroke="#FF0000" stroke-width="3" points="619,580 629,611 "/>
<polyline fill="none" opacity="1" stroke="#FF0000" stroke-width="3" points="619,580 625,528 "/>
<polyline fill="none" opacity="1" stroke="#FF0000" stroke-width="3" points="619,580 608,624 "/>
<polyline fill="none" opacity="1" stroke="#FF0000" stroke-width="3" points="619,580 556,543 "/>
<polyline fill="none" opacity="1" stroke="#FF0000" stroke-width="3" points="619,580 611,601 "/>
<polyline fill="none" opacity="1" stroke="#FF0000" stroke-width="3" points="619,580 665,604 "/>
<polyline fill="none" opacity="1" stroke="#FF0000" stroke-width="3" points="641,575 629,611 "/>
<polyline fill="none" opacity="1" stroke="#FF0000" stroke-width="3" points="641,575 625,528 "/>
<polyline fill="none" opacity="1" stroke="#FF0000" stroke-width="3" points="641,575 619,580 "/>
<polyline fill="none" opacity="1" stroke="#FF0000" stroke-width="3" points="641,575 608,624 "/>
<polyline fill="none" opacity="1" stroke="#FF0000" stroke-width="3" points="641,575 592,544 "/>
<polyline fill="none" opacity="1" stroke="#FF0000" stroke-width="3" points="641,575 611,601 "/>
<polyline fill="none" opacity="1" stroke="#FF0000" stroke-width="3" points="641,575 665,604 "/>
<polyline fill="none" opacity="1" stroke="#FF0000" stroke-width="3" points="641,575 527,562 "/>
<polyline fill="none" opacity="1" stroke="#FF0000" stroke-width="3" points="606,555 527,562 "/>
<polyline fill="none" opacity="1" stroke="#FF0000" stroke-width="3" points="606,555 619,580 "/>
<polyline fill="none" opacity="1" stroke="#FF0000" stroke-width="3" points="606,555 625,528 "/>
<polyline fill="none" opacity="1" stroke="#FF0000" stroke-width="3" points="606,555 641,575 "/>
<polyline fill="none" opacity="1" stroke="#FF0000" stroke-width="3" points="606,555 592,544 "/>
<polyline fill="none" opacity="1" stroke="#FF0000" stroke-width="3" points="606,555 611,601 "/>
<polyline fill="none" opacity="1" stroke="#FF0000" stroke-width="3" points="606,555 665,604 "/>
<polyline fill="none" opacity="1" stroke="#FF0000" stroke-width="3" points="606,555 629,611 "/>
<polyline fill="none" opacity="1" stroke="#FF0000" stroke-width="3" points="606,555 608,624 "/>
<polyline fill="none" opacity="1" stroke="#FF0000" stroke-width="3" points="606,555 479,427 "/>
<polyline fill="none" opacity="1" stroke="#FF0000" stroke-width="3" points="639,594 641,575 "/>
<polyline fill="none" opacity="1" stroke="#FF0000" stroke-width="3" points="639,594 606,555 "/>
<polyline fill="none" opacity="1" stroke="#FF0000" stroke-width="3" points="639,594 625,528 "/>
<polyline fill="none" opacity="1" stroke="#FF0000" stroke-width="3" points="639,594 619,580 "/>
<polyline fill="none" opacity="1" stroke="#FF0000" stroke-width="3" points="639,594 592,544 "/>
<polyline fill="none" opacity="1" stroke="#FF0000" stroke-width="3" points="639,594 611,601 "/>
<polyline fill="none" opacity="1" stroke="#FF0000" stroke-width="3" points="639,594 665,604 "/>
<polyline fill="none" opacity="1" stroke="#FF0000" stroke-width="3" points="639,594 629,611 "/>
<polyline fill="none" opacity="1" stroke="#FF0000" stroke-width="3" points="639,594 608,624 "/>
<polyline fill="none" opacity="1" stroke="#FF0000" stroke-width="3" points="639,594 527,562 "/>
<polyline fill="none" opacity="1" stroke="#FF0000" stroke-width="3" points="671,582 606,555 "/>
<polyline fill="none" opacity="1" stroke="#FF0000" stroke-width="3" points="671,582 592,544 "/>
<polyline fill="none" opacity="1" stroke="#FF0000" stroke-width="3" points="671,582 629,611 "/>
<polyline fill="none" opacity="1" stroke="#FF0000" stroke-width="3" points="671,582 619,580 "/>
<polyline fill="none" opacity="1" stroke="#FF0000" stroke-width="3" points="671,582 639,594 "/>
<polyline fill="none" opacity="1" stroke="#FF0000" stroke-width="3" points="671,582 625,528 "/>
<polyline fill="none" opacity="1" stroke="#FF0000" stroke-width="3" points="671,582 641,575 "/>
<polyline fill="none" opacity="1" stroke="#FF0000" stroke-width="3" points="671,582 611,601 "/>
<polyline fill="none" opacity="1" stroke="#FF0000" stroke-width="3" points="671,582 665,604 "/>
<polyline fill="none" opacity="1" stroke="#FF0000" stroke-width="3" points="663,738 608,624 "/>
<polyline fill="none" opacity="1" stroke="#FF0000" stroke-width="3" points="546,476 512,524 "/>
<polyline fill="none" opacity="1" stroke="#FF0000" stroke-width="3" points="546,476 479,427 "/>
<polyline fill="none" opacity="1" stroke="#FF0000" stroke-width="3" points="546,476 476,502 "/>
<polyline fill="none" opacity="1" stroke="#FF0000" stroke-width="3" points="546,476 500,461 "/>
<polyline fill="none" opacity="1" stroke="#FF0000" stroke-width="3" points="546,476 625,528 "/>
<polyline fill="none" opacity="1" stroke="#FF0000" stroke-width="3" points="546,476 556,543 "/>
<polyline fill="none" opacity="1" stroke="#FF0000" stroke-width="3" points="551,495 512,524 "/>
<polyline fill="none" opacity="1" stroke="#FF0000" stroke-width="3" points="551,495 546,476 "/>
<polyline fill="none" opacity="1" stroke="#FF0000" stroke-width="3" points="551,495 479,427 "/>
<polyline fill="none" opacity="1" stroke="#FF0000" stroke-width="3" points="551,495 476,502 "/>
<polyline fill="none" opacity="1" stroke="#FF0000" stroke-width="3" points="551,495 500,461 "/>
<polyline fill="none" opacity="1" stroke="#FF0000" stroke-width="3" points="551,495 625,528 "/>
<polyline fill="none" opacity="1" stroke="#FF0000" stroke-width="3" points="551,495 556,543 "/>
<polyline fill="none" opacity="1" stroke="#FF0000" stroke-width="3" points="531,495 512,524 "/>
<polyline fill="none" opacity="1" stroke="#FF0000" stroke-width="3" points="531,495 551,495 "/>
<polyline fill="none" opacity="1" stroke="#FF0000" stroke-width="3" points="531,495 546,476 "/>
<polyline fill="none" opacity="1" stroke="#FF0000" stroke-width="3" points="531,495 479,427 "/>
<polyline fill="none" opacity="1" stroke="#FF0000" stroke-width="3" points="531,495 476,502 "/>
<polyline fill="none" opacity="1" stroke="#FF0000" stroke-width="3" points="531,495 500,461 "/>
<polyline fill="none" opacity="1" stroke="#FF0000" stroke-width="3" points="531,495 556,543 "/>
<polyline fill="none" opacity="1" stroke="#FF0000" stroke-width="3" points="531,495 592,544 "/>
<polyline fill="none" opacity="1" stroke="#FF0000" stroke-width="3" points="568,472 500,461 "/>
<polyline fill="none" opacity="1" stroke="#FF0000" stroke-width="3" points="568,472 551,495 "/>
<polyline fill="none" opacity="1" stroke="#FF0000" stroke-width="3" points="568,472 546,476 "/>
<polyline fill="none" opacity="1" stroke="#FF0000" stroke-width="3" points="568,472 531,495 "/>
<polyline fill="none" opacity="1" stroke="#FF0000" stroke-width="3" points="568,472 479,427 "/>
<polyline fill="none" opacity="1" stroke="#FF0000" stroke-width="3" points="568,472 625,528 "/>
<polyline fill="none" opacity="1" stroke="#FF0000" stroke-width="3" points="568,472 556,543 "/>
<polyline fill="none" opacity="1" stroke="#FF0000" stroke-width="3" points="568,472 512,524 "/>
<polyline fill="none" opacity="1" stroke="#FF0000" stroke-width="3" points="438,451 446,514 "/>
<polyline fill="none" opacity="1" stroke="#FF0000" stroke-width="3" points="438,451 500,461 "/>
<polyline fill="none" opacity="1" stroke="#FF0000" stroke-width="3" points="438,451 479,427 "/>
<polyline fill="none" opacity="1" stroke="#FF0000" stroke-width="3" points="748,483 625,528 "/>
<polyline fill="none" opacity="1" stroke="#FF0000" stroke-width="3" points="754,516 625,528 "/>
<polyline fill="none" opacity="1" stroke="#FF0000" stroke-width="3" points="754,516 748,483 "/>
<polyline fill="none" opacity="1" stroke="#FF0000" stroke-width="3" points="593,494 551,495 "/>
<polyline fill="none" opacity="1" stroke="#FF0000" stroke-width="3" points="593,494 546,476 "/>
<polyline fill="none" opacity="1" stroke="#FF0000" stroke-width="3" points="593,494 512,524 "/>
<polyline fill="none" opacity="1" stroke="#FF0000" stroke-width="3" points="593,494 625,528 "/>
<polyline fill="none" opacity="1" stroke="#FF0000" stroke-width="3" points="593,494 556,543 "/>
<polyline fill="none" opacity="1" stroke="#FF0000" stroke-width="3" points="593,494 531,495 "/>
<polyline fill="none" opacity="1" stroke="#FF0000" stroke-width="3" points="593,494 568,472 "/>
<polyline fill="none" opacity="1" stroke="#FF0000" stroke-width="3" points="678,555 606,555 "/>
<polyline fill="none" opacity="1" stroke="#FF0000" stroke-width="3" points="678,555 639,594 "/>
<polyline fill="none" opacity="1" stroke="#FF0000" stroke-width="3" points="678,555 671,582 "/>
<polyline fill="none" opacity="1" stroke="#FF0000" stroke-width="3" points="678,555 641,575 "/>
<polyline fill="none" opacity="1" stroke="#FF0000" stroke-width="3" points="678,555 619,580 "/>
<polyline fill="none" opacity="1" stroke="#FF0000" stroke-width="3" points="678,555 625,528 "/>
<polyline fill="none" opacity="1" stroke="#FF0000" stroke-width="3" points="678,555 592,544 "/>
<circle cx="500" cy="588" r="10" opacity="1" fill="#000000" stroke="none" stroke-width="1"/>
<circle cx="551" cy="495" r="10" opacity="1" fill="#000000" stroke="none" stroke-width="1"/>
<circle cx="641" cy="575" r="10" opacity="1" fill="#000000" stroke="none" stroke-width="1"/>
<circle cx="512" cy="363" r="10" opacity="1" fill="#000000" stroke="none" stroke-width="1"/>
<circle cx="456" cy="657" r="10" opacity="1" fill="#000000" stroke="none" stroke-width="1"/>
<circle cx="356" cy="336" r="10" opacity="1" fill="#000000" stroke="none" stroke-width="1"/>
<circle cx="606" cy="555" r="10" opacity="1" fill="#000000" stroke="none" stroke-width="1"/>
<circle cx="527" cy="667" r="10" opacity="1" fill="#000000" stroke="none" stroke-width="1"/>
<circle cx="550" cy="312" r="10" opacity="1" fill="#000000" stroke="none" stroke-width="1"/>
<circle cx="593" cy="494" r="10" opacity="1" fill="#000000" stroke="none" stroke-width="1"/>
<circle cx="543" cy="340" r="10" opacity="1" fill="#000000" stroke="none" stroke-width="1"/>
<circle cx="130" cy="364" r="10" opacity="1" fill="#000000" stroke="none" stroke-width="1"/>
<circle cx="527" cy="320" r="10" opacity="1" fill="#000000" stroke="none" stroke-width="1"/>
<circle cx="748" cy="483" r="10" opacity="1" fill="#000000" stroke="none" stroke-width="1"/>
<circle cx="754" cy="516" r="10" opacity="1" fill="#000000" stroke="none" stroke-width="1"/>
<circle cx="531" cy="495" r="10" opacity="1" fill="#000000" stroke="none" stroke-width="1"/>
<circle cx="570" cy="325" r="10" opacity="1" fill="#000000" stroke="none" stroke-width="1"/>
<circle cx="629" cy="611" r="10" opacity="1" fill="#000000" stroke="none" stroke-width="1"/>
<circle cx="446" cy="514" r="10" opacity="1" fill="#000000" stroke="none" stroke-width="1"/>
<circle cx="103" cy="439" r="10" opacity="1" fill="#000000" stroke="none" stroke-width="1"/>
<circle cx="118" cy="331" r="10" opacity="1" fill="#000000" stroke="none" stroke-width="1"/>
<circle cx="619" cy="580" r="10" opacity="1" fill="#000000" stroke="none" stroke-width="1"/>
<circle cx="96" cy="384" r="10" opacity="1" fill="#000000" stroke="none" stroke-width="1"/>
<circle cx="341" cy="355" r="10" opacity="1" fill="#000000" stroke="none" stroke-width="1"/>
<circle cx="592" cy="544" r="10" opacity="1" fill="#000000" stroke="none" stroke-width="1"/>
<circle cx="556" cy="543" r="10" opacity="1" fill="#000000" stroke="none" stroke-width="1"/>
<circle cx="319" cy="358" r="10" opacity="1" fill="#000000" stroke="none" stroke-width="1"/>
<circle cx="414" cy="385" r="10" opacity="1" fill="#000000" stroke="none" stroke-width="1"/>
<circle cx="378" cy="505" r="10" opacity="1" fill="#000000" stroke="none" stroke-width="1"/>
<circle cx="353" cy="315" r="10" opacity="1" fill="#000000" stroke="none" stroke-width="1"/>
<circle cx="611" cy="601" r="10" opacity="1" fill="#000000" stroke="none" stroke-width="1"/>
<circle cx="625" cy="528" r="10" opacity="1" fill="#000000" stroke="none" stroke-width="1"/>
<circle cx="153" cy="311" r="10" opacity="1" fill="#000000" stroke="none" stroke-width="1"/>
<circle cx="496" cy="273" r="10" opacity="1" fill="#000000" stroke="none" stroke-width="1"/>
<circle cx="444" cy="564" r="10" opacity="1" fill="#000000" stroke="none" stroke-width="1"/>
<circle cx="671" cy="582" r="10" opacity="1" fill="#000000" stroke="none" stroke-width="1"/>
<circle cx="272" cy="574" r="10" opacity="1" fill="#000000" stroke="none" stroke-width="1"/>
<circle cx="546" cy="476" r="10" opacity="1" fill="#000000" stroke="none" stroke-width="1"/>
<circle cx="611" cy="361" r="10" opacity="1" fill="#000000" stroke="none" stroke-width="1"/>
<circle cx="500" cy="461" r="10" opacity="1" fill="#000000" stroke="none" stroke-width="1"/>
<circle cx="639" cy="594" r="10" opacity="1" fill="#000000" stroke="none" stroke-width="1"/>
<circle cx="889" cy="583" r="10" opacity="1" fill="#000000" stroke="none" stroke-width="1"/>
<circle cx="566" cy="349" r="10" opacity="1" fill="#000000" stroke="none" stroke-width="1"/>
<circle cx="534" cy="277" r="10" opacity="1" fill="#000000" stroke="none" stroke-width="1"/>
<circle cx="332" cy="319" r="10" opacity="1" fill="#000000" stroke="none" stroke-width="1"/>
<circle cx="446" cy="611" r="10" opacity="1" fill="#000000" stroke="none" stroke-width="1"/>
<circle cx="608" cy="624" r="10" opacity="1" fill="#000000" stroke="none" stroke-width="1"/>
<circle cx="382" cy="585" r="10" opacity="1" fill="#000000" stroke="none" stroke-width="1"/>
<circle cx="428" cy="329" r="10" opacity="1" fill="#000000" stroke="none" stroke-width="1"/>
<circle cx="527" cy="562" r="10" opacity="1" fill="#000000" stroke="none" stroke-width="1"/>
<circle cx="320" cy="412" r="10" opacity="1" fill="#000000" stroke="none" stroke-width="1"/>
<circle cx="424" cy="593" r="10" opacity="1" fill="#000000" stroke="none" stroke-width="1"/>
<circle cx="345" cy="697" r="10" opacity="1" fill="#000000" stroke="none" stroke-width="1"/>
<circle cx="787" cy="563" r="10" opacity="1" fill="#000000" stroke="none" stroke-width="1"/>
<circle cx="678" cy="555" r="10" opacity="1" fill="#000000" stroke="none" stroke-width="1"/>
<circle cx="317" cy="436" r="10" opacity="1" fill="#000000" stroke="none" stroke-width="1"/>
<circle cx="419" cy="706" r="10" opacity="1" fill="#000000" stroke="none" stroke-width="1"/>
<circle cx="476" cy="502" r="10" opacity="1" fill="#000000" stroke="none" stroke-width="1"/>
<circle cx="479" cy="303" r="10" opacity="1" fill="#000000" stroke="none" stroke-width="1"/>
<circle cx="568" cy="472" r="10" opacity="1" fill="#000000" stroke="none" stroke-width="1"/>
<circle cx="365" cy="468" r="10" opacity="1" fill="#000000" stroke="none" stroke-width="1"/>
<circle cx="663" cy="738" r="10" opacity="1" fill="#000000" stroke="none" stroke-width="1"/>
<circle cx="219" cy="400" r="10" opacity="1" fill="#000000" stroke="none" stroke-width="1"/>
<circle cx="132" cy="466" r="10" opacity="1" fill="#000000" stroke="none" stroke-width="1"/>
<circle cx="125" cy="411" r="10" opacity="1" fill="#000000" stroke="none" stroke-width="1"/>
<circle cx="403" cy="274" r="10" opacity="1" fill="#000000" stroke="none" stroke-width="1"/>
<circle cx="486" cy="647" r="10" opacity="1" fill="#000000" stroke="none" stroke-width="1"/>
<circle cx="665" cy="604" r="10" opacity="1" fill="#000000" stroke="none" stroke-width="1"/>
<circle cx="454" cy="283" r="10" opacity="1" fill="#000000" stroke="none" stroke-width="1"/>
<circle cx="451" cy="360" r="10" opacity="1" fill="#000000" stroke="none" stroke-width="1"/>
<circle cx="512" cy="524" r="10" opacity="1" fill="#000000" stroke="none" stroke-width="1"/>
<circle cx="386" cy="410" r="10" opacity="1" fill="#000000" stroke="none" stroke-width="1"/>
<circle cx="438" cy="451" r="10" opacity="1" fill="#000000" stroke="none" stroke-width="1"/>
<circle cx="479" cy="427" r="10" opacity="1" fill="#000000" stroke="none" stroke-width="1"/>
<circle cx="558" cy="402" r="10" opacity="1" fill="#000000" stroke="none" stroke-width="1"/>
<circle cx="424" cy="476" r="10" opacity="1" fill="#000000" stroke="none" stroke-width="1"/>
<circle cx="319" cy="336" r="10" opacity="1" fill="#000000" stroke="none" stroke-width="1"/>
</svg>
