<svg width="302" height="302" viewBox="0 0 302 302" xmlns="http://www.w3.org/2000/svg">
<rect x="0" y="0" width="302" height="302" opacity="1" fill="#FFFFFF" stroke="none"/>
<polyline fill="none" opacity="1" stroke="#FF0000" stroke-width="3" points="75,220 130,251 "/>
<polyline fill="none" opacity="1" stroke="#FF0000" stroke-width="3" points="49,162 75,220 "/>
<polyline fill="none" opacity="1" stroke="#FF0000" stroke-width="3" points="61,100 49,162 "/>
<polyline fill="none" opacity="1" stroke="#FF0000" stroke-width="3" points="108,57 61,100 "/>
<polyline fill="none" opacity="1" stroke="#FF0000" stroke-width="3" points="171,50 108,57 "/>
<polyline fill="none" opacity="1" stroke="#FF0000" stroke-width="3" points="226,81 171,50 "/>
<polyline fill="none" opacity="1" stroke="#FF0000" stroke-width="3" points="252,139 226,81 "/>
<polyline fill="none" opacity="1" stroke="#FF0000" stroke-width="3" points="240,201 252,139 "/>
<polyline fill="none" opacity="1" stroke="#FF0000" stroke-width="3" points="193,244 240,201 "/>
<polyline fill="none" opacity="1" stroke="#FF0000" stroke-width="3" points="130,251 193,244 "/>
<circle cx="130" cy="251" r="10" opacity="1" fill="#000000" stroke="none" stroke-width="1"/>
<circle cx="75" cy="220" r="10" opacity="1" fill="#000000" stroke="none" stroke-width="1"/>
<circle cx="49" cy="162" r="10" opacity="1" fill="#000000" stroke="none" stroke-width="1"/>
<circle cx="61" cy="100" r="10" opacity="1" fill="#000000" stroke="none" stroke-width="1"/>
<circle cx="108" cy="57" r="10" opacity="1" fill="#000000" stroke="none" stroke-width="1"/>
<circle cx="171" cy="50" r="10" opacity="1" fill="#000000" stroke="none" stroke-width="1"/>
<circle cx="226" cy="81" r="10" opacity="1" fill="#000000" stroke="none" stroke-width="1"/>
<circle cx="252" cy="139" r="10" opacity="1" fill="#000000" stroke="none" stroke-width="1"/>
<circle cx="240" cy="201" r="10" opacity="1" fill="#000000" stroke="none" stroke-width="1"/>
<circle cx="193" cy="244" r="10" opacity="1" fill="#000000" stroke="none" stroke-width="1"/>
</svg>
