<svg width="424" height="423" viewBox="0 0 424 423" xmlns="http://www.w3.org/2000/svg">
<rect x="0" y="0" width="424" height="423" opacity="1" fill="#FFFFFF" stroke="none"/>
<polyline fill="none" opacity="1" stroke="#969696" stroke-width="3" points="239,206 289,262 "/>
<polyline fill="none" opacity="1" stroke="#969696" stroke-width="3" points="239,206 294,146 "/>
<polyline fill="none" opacity="1" stroke="#969696" stroke-width="3" points="239,206 313,175 "/>
<polyline fill="none" opacity="1" stroke="#969696" stroke-width="3" points="239,206 230,292 "/>
<polyline fill="none" opacity="1" stroke="#969696" stroke-width="3" points="239,206 320,225 "/>
<polyline fill="none" opacity="1" stroke="#969696" stroke-width="3" points="239,206 138,141 "/>
<polyline fill="none" opacity="1" stroke="#969696" stroke-width="3" points="294,146 313,175 "/>
<polyline fill="none" opacity="1" stroke="#969696" stroke-width="3" points="230,292 197,351 "/>
<polyline fill="none" opacity="1" stroke="#969696" stroke-width="3" points="138,141 67,116 "/>
<polyline fill="none" opacity="1" stroke="#969696" stroke-width="3" points="138,141 89,83 "/>
<polyline fill="none" opacity="1" stroke="#969696" stroke-width="3" points="89,83 67,116 "/>
<polyline fill="none" opacity="1" stroke="#969696" stroke-width="3" points="153,366 186,298 "/>
<polyline fill="none" opacity="1" stroke="#969696" stroke-width="3" points="239,206 186,298 "/>
<polyline fill="none" opacity="1" stroke="#969696" stroke-width="3" points="186,298 197,351 "/>
<polyline fill="none" opacity="1" stroke="#969696" stroke-width="3" points="153,366 197,351 "/>
<polyline fill="none" opacity="1" stroke="#969696" stroke-width="3" points="208,155 238,132 "/>
<polyline fill="none" opacity="1" stroke="#969696" stroke-width="3" points="239,206 208,155 "/>
<polyline fill="none" opacity="1" stroke="#969696" stroke-width="3" points="239,206 238,132 "/>
<circle cx="238" cy="132" r="10" opacity="1" fill="#646464" stroke="none" stroke-width="1"/>
<circle cx="320" cy="225" r="10" opacity="1" fill="#646464" stroke="none" stroke-width="1"/>
<circle cx="186" cy="298" r="10" opacity="1" fill="#646464" stroke="none" stroke-width="1"/>
<circle cx="289" cy="262" r="10" opacity="1" fill="#646464" stroke="none" stroke-width="1"/>
<circle cx="138" cy="141" r="10" opacity="1" fill="#646464" stroke="none" stroke-width="1"/>
<circle cx="239" cy="206" r="10" opacity="1" fill="#646464" stroke="none" stroke-width="1"/>
<circle cx="313" cy="175" r="10" opacity="1" fill="#646464" stroke="none" stroke-width="1"/>
<circle cx="197" cy="351" r="10" opacity="1" fill="#646464" stroke="none" stroke-width="1"/>
<circle cx="230" cy="292" r="10" opacity="1" fill="#646464" stroke="none" stroke-width="1"/>
<circle cx="294" cy="146" r="10" opacity="1" fill="#646464" stroke="none" stroke-width="1"/>
<circle cx="153" cy="366" r="10" opacity="1" fill="#646464" stroke="none" stroke-width="1"/>
<circle cx="208" cy="155" r="10" opacity="1" fill="#646464" stroke="none" stroke-width="1"/>
<circle cx="67" cy="116" r="10" opacity="1" fill="#646464" stroke="none" stroke-width="1"/>
<circle cx="89" cy="83" r="10" opacity="1" fill="#646464" stroke="none" stroke-width="1"/>
<text x="248" y="132" dy="0.5ex" text-anchor="start" font-family="sans-serif" font-size="16.129032258064516" opacity="1" fill="#000000">
Marian
</text>
<text x="330" y="225" dy="0.5ex" text-anchor="start" font-family="sans-serif" font-size="16.129032258064516" opacity="1" fill="#000000">
Lina
</text>
<text x="196" y="298" dy="0.5ex" text-anchor="start" font-family="sans-serif" font-size="16.129032258064516" opacity="1" fill="#000000">
Mae
</text>
<text x="299" y="262" dy="0.5ex" text-anchor="start" font-family="sans-serif" font-size="16.129032258064516" opacity="1" fill="#000000">
Ella
</text>
<text x="148" y="141" dy="0.5ex" text-anchor="start" font-family="sans-serif" font-size="16.129032258064516" opacity="1" fill="#000000">
Ethan
</text>
<text x="249" y="206" dy="0.5ex" text-anchor="start" font-family="sans-serif" font-size="16.129032258064516" opacity="1" fill="#000000">
Grant
</text>
<text x="323" y="175" dy="0.5ex" text-anchor="start" font-family="sans-serif" font-size="16.129032258064516" opacity="1" fill="#000000">
Eliot
</text>
<text x="207" y="351" dy="0.5ex" text-anchor="start" font-family="sans-serif" font-size="16.129032258064516" opacity="1" fill="#000000">
Brady
</text>
<text x="240" y="292" dy="0.5ex" text-anchor="start" font-family="sans-serif" font-size="16.129032258064516" opacity="1" fill="#000000">
Zack
</text>
<text x="304" y="146" dy="0.5ex" text-anchor="start" font-family="sans-serif" font-size="16.129032258064516" opacity="1" fill="#000000">
Nathan
</text>
<text x="163" y="366" dy="0.5ex" text-anchor="start" font-family="sans-serif" font-size="16.129032258064516" opacity="1" fill="#000000">
Max
</text>
<text x="218" y="155" dy="0.5ex" text-anchor="start" font-family="sans-serif" font-size="16.129032258064516" opacity="1" fill="#000000">
Jesus
</text>
<text x="77" y="116" dy="0.5ex" text-anchor="start" font-family="sans-serif" font-size="16.129032258064516" opacity="1" fill="#000000">
Nick
</text>
<text x="99" y="83" dy="0.5ex" text-anchor="start" font-family="sans-serif" font-size="16.129032258064516" opacity="1" fill="#000000">
Alex
</text>
</svg>
